<?xml version="1.0" standalone="no"?>
<!DOCTYPE svg PUBLIC "-//W3C//DTD SVG 20010904//EN"
 "http://www.w3.org/TR/2001/REC-SVG-20010904/DTD/svg10.dtd">
<svg version="1.0" xmlns="http://www.w3.org/2000/svg"
 width="700.000000pt" height="700.000000pt" viewBox="0 0 700.000000 700.000000"
 preserveAspectRatio="xMidYMid meet">
<metadata>
Created by potrace 1.14, written by Peter Selinger 2001-2017
</metadata>
<g transform="translate(0.000000,700.000000) scale(0.100000,-0.100000)"
fill="#000000" stroke="none">
<path d="M2160 5401 c0 -6 5 -13 10 -16 6 -3 10 -22 10 -41 0 -19 4 -33 9 -30
5 3 7 16 4 27 -5 18 -3 20 18 14 50 -14 145 -69 171 -99 24 -27 27 -28 27 -11
1 36 -32 63 -124 105 -49 23 -98 45 -107 51 -11 6 -18 6 -18 0z"/>
<path d="M1981 5327 c-2 -23 -4 -66 -5 -95 -1 -51 -11 -67 -22 -37 -4 8 -15
15 -25 15 -15 0 -19 -7 -19 -34 0 -19 5 -38 10 -41 6 -3 10 -13 10 -22 0 -21
30 -83 41 -83 14 0 11 32 -6 64 -25 48 -20 56 35 56 58 0 66 16 19 42 -27 16
-30 22 -28 64 3 45 14 66 41 77 9 4 8 10 -6 21 -31 25 -41 19 -45 -27z"/>
<path d="M2437 5321 c2 -10 10 -18 16 -18 48 1 69 -7 106 -43 44 -43 51 -47
51 -28 0 19 -52 68 -72 68 -10 0 -18 4 -18 10 0 5 -17 14 -37 19 -50 14 -52
14 -46 -8z"/>
<path d="M2663 5304 c-3 -8 -2 -22 1 -31 6 -14 9 -15 16 -4 10 17 43 6 38 -11
-3 -7 22 -35 54 -62 34 -29 61 -60 64 -75 10 -45 13 -51 29 -51 23 0 20 56 -3
63 -11 2 -21 17 -25 34 -6 32 -63 103 -82 103 -7 0 -20 9 -29 19 -23 25 -56
33 -63 15z"/>
<path d="M2850 5258 c0 -16 44 -58 61 -58 18 0 5 22 -29 48 -23 18 -32 21 -32
10z"/>
<path d="M4410 5175 c0 -16 9 -19 34 -9 25 9 19 24 -9 24 -16 0 -25 -6 -25
-15z"/>
<path d="M4229 5162 c-64 -42 -99 -81 -99 -112 0 -46 32 -36 43 13 6 23 19 45
34 54 23 16 26 15 35 0 15 -28 23 -20 23 23 0 45 0 45 -36 22z"/>
<path d="M2950 5158 c0 -8 9 -23 19 -32 10 -10 22 -34 26 -54 9 -55 15 -72 26
-72 15 0 10 73 -9 109 -20 40 -62 73 -62 49z"/>
<path d="M4106 5135 c-21 -16 -13 -35 15 -35 14 0 19 7 19 25 0 28 -7 30 -34
10z"/>
<path d="M4337 5114 c-22 -20 -45 -33 -53 -30 -8 3 -14 -1 -14 -9 0 -30 50
-16 91 25 21 21 39 42 39 45 0 15 -29 1 -63 -31z"/>
<path d="M3110 5111 c0 -17 -4 -32 -9 -36 -13 -7 -55 -135 -47 -142 11 -11 23
10 49 82 19 54 29 71 46 73 26 4 27 14 3 35 -27 25 -42 21 -42 -12z"/>
<path d="M2220 5110 c0 -10 49 -90 61 -100 3 -3 12 -16 19 -30 7 -14 40 -62
73 -108 33 -45 57 -85 54 -88 -9 -9 -137 7 -137 17 0 5 -13 9 -30 9 -16 0 -30
5 -30 10 0 6 -9 10 -20 10 -11 0 -20 4 -20 9 0 5 -14 14 -30 20 -25 8 -32 7
-37 -5 -8 -21 19 -40 132 -91 26 -11 72 -19 130 -21 50 -2 92 -8 95 -12 22
-35 222 -262 254 -289 32 -26 109 -134 91 -127 -10 3 -56 13 -104 20 -47 8
-99 19 -114 25 -38 15 -39 14 -35 -11 6 -41 105 -78 226 -85 107 -7 140 -22
212 -98 19 -21 62 -57 95 -82 75 -55 93 -68 129 -97 15 -13 46 -34 68 -46 56
-32 47 -5 -17 50 -27 23 -86 77 -130 119 -44 42 -99 92 -122 112 -26 22 -43
44 -43 57 0 16 -6 22 -22 22 -23 0 -98 72 -98 94 0 7 -15 24 -33 37 -19 13
-68 63 -109 110 l-76 85 9 45 c5 24 12 61 16 82 3 20 9 37 13 37 14 0 30 51
21 68 -4 9 -11 47 -13 83 -5 65 -33 149 -50 149 -4 0 -8 7 -8 15 0 9 -9 15
-25 15 -18 0 -25 -5 -25 -20 0 -11 4 -20 9 -20 5 0 12 -17 16 -37 4 -21 11
-44 17 -50 17 -20 6 -292 -12 -303 -19 -12 -25 -7 -65 53 -80 121 -109 158
-148 193 -87 75 -97 86 -128 134 -30 46 -59 65 -59 40z"/>
<path d="M4460 5081 c0 -91 13 -191 25 -191 7 0 15 7 19 15 10 26 26 16 27
-17 1 -18 5 -44 9 -58 7 -23 8 -23 9 -3 1 12 5 23 10 25 5 2 6 27 4 56 -6 53
-6 54 -33 48 -25 -5 -28 -2 -34 32 -3 20 -6 56 -6 78 0 28 -5 44 -15 48 -12 4
-15 -3 -15 -33z"/>
<path d="M4037 5062 c-9 -10 -23 -34 -32 -55 -15 -37 -16 -37 -40 -21 -14 9
-25 20 -25 25 0 5 -7 9 -15 9 -8 0 -15 9 -15 20 0 33 -14 23 -60 -40 -43 -59
-54 -68 -64 -51 -11 17 -57 -2 -86 -35 -18 -21 -33 -51 -36 -76 -7 -38 -8 -40
-22 -22 -13 17 -14 15 -8 -25 8 -52 13 -61 30 -61 15 0 26 30 26 76 0 49 18
88 49 106 25 14 30 14 35 2 10 -25 41 -15 60 20 10 19 25 37 33 40 8 3 11 10
8 16 -3 6 5 10 19 10 13 0 26 -3 28 -7 2 -5 22 -18 44 -30 l42 -23 6 32 c3 17
12 39 20 47 14 16 31 61 23 61 -2 0 -11 -8 -20 -18z"/>
<path d="M1881 5003 c-8 -29 -8 -41 3 -51 12 -12 15 -11 21 7 8 25 46 28 69 6
20 -21 60 -20 52 1 -3 9 -6 17 -6 19 0 2 -8 1 -18 -1 -24 -7 -92 23 -92 41 0
29 -19 14 -29 -22z"/>
<path d="M3220 5001 c0 -13 13 -51 29 -85 15 -33 31 -69 34 -78 11 -30 30 -21
23 10 -11 44 -28 82 -37 82 -5 0 -9 11 -9 24 0 13 -9 34 -20 47 l-19 24 -1
-24z"/>
<path d="M4253 4963 c-8 -21 -33 -55 -55 -75 -25 -23 -42 -48 -44 -65 -1 -15
-11 -35 -21 -43 -23 -19 -67 -80 -77 -104 -5 -14 -10 -16 -17 -9 -7 7 -9 56
-7 132 l3 122 -25 -3 c-24 -3 -25 -6 -28 -83 -2 -44 2 -114 8 -156 l11 -76
-35 -59 c-62 -104 -80 -138 -108 -199 l-27 -60 -11 29 c-24 64 -49 201 -59
331 -5 68 -9 80 -25 83 -18 4 -19 -2 -14 -133 3 -76 10 -140 16 -144 5 -3 15
-39 21 -79 6 -41 18 -87 27 -103 16 -32 11 -63 -13 -87 -8 -8 -17 -27 -20 -43
-3 -16 -9 -29 -14 -29 -5 0 -9 -8 -9 -17 0 -19 -35 -107 -63 -159 -19 -37 -34
-114 -21 -114 10 0 94 168 94 188 0 6 4 12 9 12 5 0 13 12 19 28 5 15 19 36
30 48 24 25 52 78 52 98 0 10 19 18 58 26 105 21 187 42 197 51 5 5 17 9 26 9
10 0 39 11 65 25 26 14 53 25 60 25 8 0 14 5 14 10 0 6 10 10 22 10 12 0 32
11 43 24 11 13 29 25 40 27 12 3 21 14 23 27 5 31 -39 30 -69 -3 -13 -13 -32
-25 -42 -25 -10 0 -20 -7 -23 -15 -4 -8 -17 -15 -30 -15 -13 0 -24 -4 -24 -9
0 -5 -18 -11 -40 -15 -22 -3 -40 -10 -40 -14 0 -4 -24 -16 -54 -26 -40 -14
-66 -16 -105 -11 -47 6 -51 9 -45 28 4 12 13 27 20 35 8 7 14 22 14 33 0 10 4
19 10 19 5 0 13 15 18 33 5 17 28 61 50 97 23 36 49 80 58 97 9 18 31 50 50
70 19 20 34 43 34 50 0 8 7 16 15 19 8 3 17 15 21 26 3 11 15 29 25 39 11 11
22 33 26 50 3 17 12 33 19 36 8 3 14 11 14 19 0 8 4 14 9 14 5 0 11 9 14 20 4
17 0 20 -24 20 -25 0 -33 -6 -46 -37z"/>
<path d="M1930 4864 c0 -4 10 -22 22 -41 l21 -35 -61 7 c-36 4 -62 3 -62 -2 0
-5 11 -33 25 -61 14 -29 25 -55 25 -58 0 -3 9 -17 20 -31 23 -30 25 -43 8 -43
-29 -1 -49 -27 -42 -56 10 -38 89 -114 120 -114 30 0 31 16 2 31 -29 15 -98
84 -98 98 0 6 7 11 15 11 8 0 15 5 15 10 0 6 11 10 25 10 29 0 32 12 7 37 -20
21 -72 115 -72 132 0 7 19 11 48 11 27 0 51 3 55 6 7 7 -54 93 -65 94 -5 0 -8
-3 -8 -6z"/>
<path d="M3586 4848 c-22 -34 -39 -114 -33 -153 6 -39 3 -42 -21 -19 -15 15
-17 14 -28 -17 -6 -19 -21 -56 -33 -82 -27 -59 -42 -259 -29 -393 6 -58 5 -91
-2 -98 -7 -7 -10 5 -11 40 0 72 -12 127 -28 132 -24 8 4 -185 32 -212 19 -19
28 -10 21 20 -4 15 -2 24 5 24 7 0 10 42 9 133 -1 161 8 271 29 315 8 19 12
45 9 58 -4 14 -2 24 4 24 5 0 10 8 10 17 0 15 1 15 14 -2 8 -12 19 -16 31 -11
15 6 17 15 12 66 -6 51 -3 69 18 116 28 64 28 64 15 64 -5 0 -16 -10 -24 -22z"/>
<path d="M4560 4730 c0 -5 5 -10 11 -10 7 0 18 -8 25 -17 12 -16 13 -15 14 10
0 22 -4 27 -25 27 -14 0 -25 -4 -25 -10z"/>
<path d="M4567 4601 c-9 -15 -19 -47 -23 -69 -6 -38 -5 -42 15 -42 16 0 21 -6
21 -26 0 -41 25 -23 28 21 3 34 1 37 -17 32 -12 -3 -24 -1 -27 4 -3 5 -1 9 4
9 12 0 33 83 24 92 -4 4 -15 -5 -25 -21z"/>
<path d="M2113 4365 c-10 -24 -9 -25 18 -25 24 0 29 4 29 25 0 33 -31 33 -47
0z"/>
<path d="M1980 4325 c0 -8 6 -15 13 -15 8 0 19 -11 25 -24 6 -14 35 -42 64
-64 29 -22 61 -49 71 -60 11 -11 37 -24 59 -27 23 -4 42 -14 45 -23 13 -37 23
-41 55 -24 23 13 32 14 35 5 3 -8 24 -13 58 -13 34 0 57 -5 65 -15 7 -9 29
-15 51 -15 22 0 39 -4 39 -10 0 -5 11 -10 25 -10 14 0 25 -4 25 -10 0 -12 27
-13 32 -1 2 4 30 -4 63 -20 33 -16 75 -29 93 -29 17 0 32 -4 32 -10 0 -5 11
-10 25 -10 29 0 92 -24 115 -44 8 -8 44 -21 80 -30 36 -9 76 -27 90 -40 14
-12 40 -29 58 -36 17 -7 32 -16 32 -21 0 -5 6 -9 14 -9 8 0 16 -5 18 -12 3 -7
32 -14 71 -16 57 -4 67 -2 67 12 0 12 -9 16 -34 16 -18 0 -47 7 -62 15 -16 8
-37 15 -46 15 -10 0 -18 4 -18 9 0 5 -39 33 -87 63 -85 52 -105 60 -333 124
-30 9 -71 23 -90 32 -83 38 -173 62 -285 78 -66 9 -128 20 -137 25 -10 5 -27
9 -37 9 -11 0 -23 5 -26 10 -3 6 -20 10 -36 10 -23 0 -34 8 -49 33 -11 17 -37
42 -58 55 -20 13 -45 36 -54 52 -16 28 -16 29 5 33 12 2 1 5 -25 6 -37 1 -48
-3 -48 -14z"/>
<path d="M4504 4290 c-12 -4 -24 -15 -27 -24 -5 -13 1 -16 34 -16 38 0 39 -1
28 -22 -20 -38 -56 -77 -64 -70 -5 4 -5 1 -1 -5 8 -15 -42 -86 -54 -78 -5 3
-10 1 -12 -3 -5 -14 -88 -66 -223 -141 -71 -40 -137 -78 -145 -85 -29 -24
-225 -142 -267 -160 -24 -11 -43 -23 -43 -27 0 -5 -18 -12 -40 -15 -22 -4 -43
-10 -45 -15 -8 -12 34 -22 48 -11 7 5 27 14 46 21 44 14 255 135 305 174 21
17 62 43 90 59 28 15 85 46 126 68 171 92 184 103 273 233 51 74 59 107 27
107 -11 0 -20 5 -20 10 0 12 -7 12 -36 0z"/>
<path d="M2089 3993 c-8 -9 -13 -24 -11 -34 2 -13 -6 -20 -32 -25 -20 -3 -42
-4 -51 -1 -11 5 -13 0 -8 -23 5 -29 5 -30 -36 -30 -23 0 -51 -5 -62 -10 -21
-12 -51 -63 -47 -81 2 -6 -15 -18 -37 -25 -76 -27 -86 -67 -21 -80 20 -3 36
-9 36 -13 0 -4 -33 -20 -72 -35 -94 -35 -100 -38 -117 -68 -22 -38 -9 -58 39
-58 22 0 40 5 40 10 0 6 -9 10 -19 10 -31 0 -34 17 -10 50 19 25 30 30 65 30
28 0 44 5 48 15 3 8 14 15 25 15 11 0 21 9 24 22 7 24 -7 38 -35 38 -21 0 -22
4 -8 30 7 13 27 20 70 25 62 7 75 20 43 46 -9 8 -18 13 -20 12 -10 -8 -12 -1
-4 16 6 11 26 21 48 25 94 16 93 16 87 42 -6 23 -4 24 40 24 42 0 46 2 46 24
0 13 -6 27 -12 29 -15 6 14 10 53 7 16 -1 29 5 32 14 9 23 -75 22 -94 -1z"/>
<path d="M2730 3900 c0 -13 7 -20 20 -20 11 0 20 -4 20 -9 0 -5 12 -12 27 -16
15 -3 30 -10 33 -14 3 -4 26 -19 52 -34 26 -15 60 -44 75 -65 15 -20 38 -49
52 -64 13 -15 23 -30 20 -32 -8 -8 -393 -10 -416 -2 -13 4 -23 12 -23 17 0 5
-9 9 -20 9 -11 0 -20 4 -20 8 0 5 -18 15 -41 22 -22 8 -62 29 -87 47 -26 18
-54 33 -63 33 -9 0 -19 6 -22 13 -6 15 -125 57 -162 57 -18 0 -25 -5 -25 -20
0 -15 7 -20 25 -20 14 0 25 -4 25 -8 0 -5 25 -15 55 -22 30 -7 55 -17 55 -22
0 -4 9 -8 20 -8 11 0 20 -4 20 -9 0 -13 133 -91 156 -91 10 -1 30 -7 44 -15
23 -13 20 -14 -52 -15 -43 0 -78 -4 -78 -9 0 -5 -75 -11 -167 -13 -164 -5
-303 -27 -303 -49 0 -5 -7 -9 -15 -9 -8 0 -15 -7 -15 -15 0 -12 8 -14 38 -10
20 3 129 12 242 20 113 8 226 18 253 21 59 7 62 -8 9 -52 -62 -52 -120 -84
-150 -84 -37 0 -67 -22 -59 -44 8 -21 80 -22 101 -1 8 8 21 15 29 15 19 0 157
128 157 145 0 15 24 21 123 30 37 4 67 11 67 16 0 5 32 9 70 9 39 0 70 -3 70
-8 0 -11 -88 -92 -100 -92 -5 0 -10 -4 -10 -8 0 -12 -88 -50 -132 -58 -29 -5
-38 -11 -38 -26 0 -19 5 -20 52 -16 29 3 54 11 56 17 2 6 11 11 20 11 19 0
122 52 122 62 0 3 20 27 45 52 25 26 45 51 45 56 0 6 35 10 80 10 47 0 80 4
80 10 0 6 30 10 69 10 74 0 104 7 95 21 -3 5 -45 9 -93 9 l-88 0 -19 35 c-10
19 -22 35 -26 35 -5 0 -8 7 -8 16 0 29 -106 128 -173 162 -75 38 -117 42 -117
12z"/>
<path d="M3578 3643 c-3 -10 1 -34 8 -53 l12 -35 1 40 c1 46 -13 78 -21 48z"/>
<path d="M3440 3570 c0 -40 4 -70 10 -70 6 0 10 7 10 16 0 8 5 12 10 9 17 -11
12 -210 -7 -268 -18 -55 -49 -109 -83 -142 -11 -12 -20 -24 -20 -29 0 -4 -21
-32 -47 -61 -27 -28 -68 -87 -92 -131 -25 -43 -47 -81 -51 -84 -15 -12 -79
-141 -110 -220 -18 -47 -36 -92 -41 -100 -35 -57 -57 -121 -58 -170 -2 -61 -8
-88 -24 -108 -15 -19 -22 -405 -8 -429 8 -13 11 19 11 122 0 141 13 269 29
289 4 6 11 35 14 65 4 30 11 57 17 61 6 4 20 47 32 96 21 94 76 225 108 259
10 11 23 39 29 61 6 23 18 47 26 54 8 7 24 32 35 56 10 24 24 44 29 44 6 0 13
11 17 25 3 14 10 25 14 25 5 0 11 8 14 18 3 10 21 34 39 55 59 67 84 102 107
147 12 25 31 57 42 72 28 40 37 227 14 293 -9 27 -16 57 -16 67 0 21 -22 48
-39 48 -7 0 -11 -27 -11 -70z"/>
<path d="M3601 3403 c-1 -84 3 -153 8 -153 23 0 29 226 6 275 -12 27 -13 15
-14 -122z"/>
<path d="M4557 3536 c-7 -18 1 -26 25 -26 24 0 23 17 -1 29 -14 8 -20 7 -24
-3z"/>
<path d="M4890 3485 c-24 -14 -24 -14 -3 -15 12 0 29 -3 38 -6 13 -5 16 -2 14
11 -5 24 -19 27 -49 10z"/>
<path d="M1705 3470 c-6 -9 33 -30 55 -30 5 0 15 -6 22 -13 19 -19 83 -47 107
-47 31 0 25 16 -11 31 -18 7 -39 19 -46 26 -7 7 -22 13 -32 13 -13 0 -17 5
-14 15 5 12 -2 15 -34 15 -23 0 -44 -5 -47 -10z"/>
<path d="M4070 3458 c-36 -11 -72 -26 -80 -32 -8 -7 -45 -27 -82 -44 -38 -17
-68 -35 -68 -40 0 -5 -18 -17 -39 -27 -22 -10 -42 -24 -45 -31 -3 -8 -14 -18
-25 -22 -24 -9 -143 -123 -173 -165 -12 -18 -39 -49 -60 -71 -21 -21 -38 -42
-38 -46 0 -5 -19 -32 -42 -61 -43 -54 -89 -125 -108 -167 -5 -12 -19 -33 -30
-45 -20 -21 -20 -19 2 28 45 95 67 131 102 174 20 24 36 46 36 49 0 4 15 23
33 42 67 73 137 177 137 202 0 21 -22 4 -37 -27 -9 -19 -20 -35 -25 -35 -4 0
-8 -9 -8 -20 0 -11 -6 -20 -12 -21 -19 0 -102 -103 -161 -199 -28 -47 -60 -96
-69 -110 -10 -13 -18 -32 -18 -42 0 -10 -4 -18 -10 -18 -5 0 -10 -9 -10 -19 0
-10 -7 -21 -15 -25 -8 -3 -15 -11 -15 -19 0 -7 -11 -35 -24 -63 -13 -27 -32
-67 -41 -89 -9 -22 -26 -58 -36 -80 -17 -37 -34 -112 -46 -207 -3 -21 -9 -38
-14 -38 -11 0 -10 -248 1 -275 6 -14 9 4 9 56 1 42 5 100 11 130 5 30 15 87
21 127 7 48 15 70 21 64 6 -6 5 -23 -2 -48 -14 -46 -26 -418 -15 -499 7 -61
32 -74 27 -14 -11 142 -13 313 -3 374 39 238 54 302 80 351 10 18 21 31 25 27
3 -3 6 2 7 13 1 50 9 80 24 90 8 6 15 19 15 28 0 9 5 16 10 16 6 0 10 5 10 11
0 6 12 30 28 53 15 22 34 60 41 84 8 23 18 42 23 42 4 0 8 9 8 19 0 10 6 21
13 24 7 2 22 23 32 46 11 22 23 41 26 41 8 0 72 63 192 188 48 50 107 103 132
118 25 14 45 30 45 34 0 12 110 70 233 124 57 24 228 22 286 -4 50 -23 67 -18
31 10 -78 59 -197 74 -310 38z m-823 -831 c-18 -28 -59 -131 -82 -209 -11 -36
-23 -58 -32 -58 -10 0 -12 6 -7 23 4 12 10 24 15 27 4 3 13 28 19 55 6 27 15
54 19 60 5 5 14 28 21 50 17 53 54 109 58 89 2 -8 -3 -25 -11 -37z"/>
<path d="M4627 3445 c9 -19 20 -35 25 -35 4 0 8 -10 8 -22 0 -41 14 -52 56
-45 22 4 43 12 49 19 5 7 22 19 37 27 32 17 86 71 71 71 -23 0 -62 -20 -94
-48 -47 -40 -84 -46 -104 -16 -8 13 -15 30 -15 38 0 16 -26 46 -41 46 -5 0 -1
-16 8 -35z"/>
<path d="M4530 3411 c0 -25 -5 -41 -15 -45 -8 -3 -15 -12 -15 -21 0 -8 -7 -15
-16 -15 -10 0 -14 -7 -12 -22 5 -32 25 -33 33 -1 3 15 12 35 20 43 17 20 30
100 16 100 -6 0 -11 -18 -11 -39z"/>
<path d="M1907 3360 c-16 -19 -16 -20 11 -20 26 1 62 20 62 34 0 15 -57 4 -73
-14z"/>
<path d="M1862 3325 c38 -36 58 -44 58 -24 0 6 -9 13 -20 16 -11 3 -20 14 -20
24 0 14 -7 19 -27 19 l-28 -1 37 -34z"/>
<path d="M4023 3348 c-13 -6 -23 -15 -23 -20 0 -4 -6 -8 -14 -8 -18 0 -76 -32
-76 -42 0 -5 -5 -8 -10 -8 -19 0 -120 -80 -198 -158 -72 -71 -202 -233 -246
-306 -10 -17 -22 -32 -27 -34 -5 -2 -9 -12 -9 -23 0 -10 -4 -19 -9 -19 -4 0
-28 -39 -52 -87 -24 -49 -49 -94 -56 -100 -6 -7 -15 -27 -18 -45 -4 -18 -11
-37 -15 -43 -4 -5 -22 -55 -39 -109 -32 -100 -54 -246 -32 -216 6 8 11 25 11
38 0 28 25 29 42 2 7 -11 18 -20 23 -20 15 0 75 -66 108 -118 54 -83 67 -132
58 -214 -5 -44 -4 -75 2 -79 5 -4 5 -14 -2 -27 -6 -11 -11 -24 -11 -29 0 -13
70 -9 79 5 4 7 18 11 32 10 l24 -3 -1 143 c-1 139 -2 144 -33 207 -18 36 -38
68 -44 72 -7 5 -18 20 -24 35 -14 32 -121 123 -169 143 -40 16 -42 30 -15 106
57 158 149 330 232 433 34 42 96 121 104 133 6 8 39 46 75 85 98 106 223 203
328 254 50 25 92 47 92 49 0 9 -65 4 -87 -7z m-673 -1199 c36 -37 49 -59 35
-59 -3 0 -28 22 -57 50 -37 34 -48 50 -35 50 9 0 35 -19 57 -41z m75 -99 c8
-16 15 -34 15 -40 0 -17 -28 15 -40 44 -13 36 6 33 25 -4z"/>
<path d="M4270 3346 c0 -2 23 -26 51 -54 44 -42 51 -53 45 -75 -4 -18 -15 -29
-34 -33 -48 -11 -112 -36 -112 -45 0 -5 10 -9 23 -9 13 0 29 -6 36 -12 10 -11
15 -10 25 5 7 9 17 17 23 17 17 0 83 76 83 97 0 13 -21 38 -56 67 -48 39 -84
57 -84 42z"/>
<path d="M3254 3308 c-16 -13 -46 -38 -67 -57 -21 -19 -55 -45 -77 -58 -24
-15 -37 -29 -34 -37 4 -9 -7 -18 -31 -26 -20 -7 -39 -10 -42 -7 -2 3 -26 -5
-51 -18 -26 -13 -71 -27 -100 -31 -29 -3 -55 -11 -58 -15 -9 -15 91 -10 112 6
10 8 29 15 41 15 12 0 32 4 45 9 13 5 36 12 51 16 15 3 47 26 69 50 23 25 46
45 51 45 11 0 118 96 130 116 12 21 -7 17 -39 -8z"/>
<path d="M4939 3305 c-3 -28 -4 -33 -11 -41 -5 -4 -8 -15 -8 -25 0 -10 -9 -21
-20 -24 -26 -8 -48 -47 -31 -53 7 -2 17 -10 24 -18 31 -38 40 -44 60 -44 12 0
36 -13 53 -29 35 -32 56 -91 31 -91 -7 0 -22 -9 -32 -20 -10 -11 -31 -20 -47
-20 -15 0 -28 -5 -28 -10 0 -6 -16 -8 -41 -4 -42 7 -42 7 -35 -21 4 -15 21
-41 39 -58 30 -28 31 -30 12 -43 -12 -9 -44 -14 -86 -14 -64 0 -67 1 -72 28
-8 35 -68 99 -102 108 -22 5 -35 -2 -88 -52 -61 -58 -131 -104 -142 -93 -3 4
6 30 20 60 25 53 35 161 17 173 -4 2 -77 -1 -162 -8 -144 -12 -149 -13 -67
-15 48 0 87 -5 87 -10 0 -5 -22 -29 -50 -54 -28 -25 -50 -54 -50 -65 0 -11 -9
-26 -20 -33 -27 -18 -32 -131 -8 -169 9 -14 21 -48 28 -77 17 -76 198 -317
246 -329 13 -3 26 -13 29 -22 3 -10 39 -37 80 -61 41 -24 75 -47 75 -51 0 -13
153 -52 224 -58 95 -7 198 13 238 46 115 95 188 218 228 387 22 89 24 124 25
305 0 113 -3 219 -6 237 -10 53 -111 145 -215 198 -49 25 -101 45 -116 45 -17
0 -33 8 -40 20 -15 24 -37 26 -39 5z"/>
<path d="M1950 3270 c36 -12 60 -12 60 0 0 6 -19 10 -42 9 -37 -1 -39 -2 -18
-9z"/>
<path d="M2130 3189 c0 -5 -16 -17 -35 -25 -59 -24 -40 -45 43 -43 43 0 45 1
22 12 -14 6 -26 12 -28 13 -2 1 4 14 13 28 16 24 16 26 1 26 -9 0 -16 -5 -16
-11z"/>
<path d="M2301 3161 c-19 -3 -36 -12 -39 -19 -3 -11 7 -12 52 -7 49 6 56 5 50
-9 -3 -9 -12 -16 -19 -16 -7 0 -15 -8 -19 -17 -3 -10 -9 -24 -12 -30 -4 -8 2
-13 16 -13 13 0 24 8 27 20 3 11 9 20 13 20 9 0 30 46 30 65 0 16 -35 18 -99
6z"/>
<path d="M2530 3113 c-8 -3 -31 -13 -50 -21 -19 -9 -48 -19 -64 -22 -30 -5
-49 -30 -24 -30 29 0 114 30 153 55 29 17 34 24 20 24 -11 0 -27 -3 -35 -6z"/>
<path d="M4034 3066 c-15 -12 -17 -18 -8 -33 6 -10 20 -20 30 -21 15 -3 17 -1
7 9 -20 20 -15 34 15 46 l27 11 -26 1 c-14 1 -34 -5 -45 -13z"/>
<path d="M3176 2068 c-10 -40 -6 -206 6 -233 18 -41 31 -30 24 21 -3 26 -6 89
-6 140 0 89 -11 121 -24 72z"/>
</g>
</svg>
